<?xml version="1.0" standalone="no"?>
<!DOCTYPE svg PUBLIC "-//W3C//DTD SVG 20010904//EN"
 "http://www.w3.org/TR/2001/REC-SVG-20010904/DTD/svg10.dtd">
<svg version="1.0" xmlns="http://www.w3.org/2000/svg"
 width="192.000000pt" height="192.000000pt" viewBox="0 0 192.000000 192.000000"
 preserveAspectRatio="xMidYMid meet">
<metadata>
Created by potrace 1.14, written by Peter Selinger 2001-2017
</metadata>
<g transform="translate(0.000000,192.000000) scale(0.100000,-0.100000)"
fill="#000000" stroke="none">
<path d="M760 1597 c-128 -65 -285 -176 -295 -208 -4 -11 -11 -17 -16 -14 -5
4 -9 1 -9 -6 0 -7 -11 -27 -25 -45 -14 -18 -25 -36 -25 -39 0 -14 -45 -105
-52 -105 -3 0 -4 -10 0 -22 3 -11 1 -19 -4 -16 -5 4 -10 -6 -11 -20 0 -14 -9
-31 -18 -38 -9 -7 -17 -16 -18 -21 -1 -4 -5 -7 -8 -6 -4 1 -4 -7 -1 -19 3 -13
1 -19 -5 -15 -7 5 -9 0 -6 -13 3 -11 0 -27 -7 -35 -7 -8 -10 -24 -7 -34 3 -11
0 -22 -7 -25 -7 -3 -7 -5 2 -5 6 -1 12 -6 12 -12 0 -5 -5 -7 -11 -3 -8 5 -9 2
-1 -11 6 -11 6 -30 1 -48 -6 -21 -3 -46 11 -88 20 -58 124 -268 138 -278 4 -4
16 -24 25 -46 10 -22 32 -56 50 -75 32 -36 154 -123 212 -152 43 -22 164 -48
171 -37 3 5 12 5 22 0 22 -12 84 -17 98 -9 5 4 16 3 24 -2 7 -4 24 -4 37 1 16
6 22 5 18 -1 -3 -6 -1 -10 4 -10 6 0 11 5 11 11 0 6 13 8 30 5 17 -2 30 -1 30
3 0 4 20 13 45 20 25 7 45 17 45 23 0 5 4 7 9 4 14 -9 42 5 35 16 -4 6 2 6 14
-1 15 -8 21 -7 25 4 4 10 1 12 -11 9 -9 -3 1 6 23 20 22 13 47 31 55 39 25 23
45 32 34 16 -12 -20 -14 -40 -3 -33 5 3 7 9 4 14 -7 11 104 122 115 115 6 -4
7 1 3 11 -4 12 -3 15 5 10 7 -4 12 -1 12 7 0 7 13 26 29 41 16 15 37 48 46 72
9 24 21 44 26 44 6 0 7 4 4 10 -3 6 -2 10 3 10 6 0 13 17 17 38 11 64 28 112
36 106 5 -3 9 0 9 5 0 6 -4 11 -9 11 -6 0 -6 12 -1 29 4 16 6 32 2 35 -3 3 0
6 8 6 9 0 10 3 1 13 -6 8 -9 16 -6 18 13 13 2 157 -14 187 -6 10 -7 22 -4 26
3 3 1 6 -6 6 -7 0 -9 5 -6 10 3 6 1 10 -4 10 -6 0 -10 3 -10 8 1 4 0 9 -1 12
-1 3 -3 13 -5 23 -2 10 -11 30 -21 45 -10 15 -17 32 -16 39 1 6 -3 15 -9 19
-8 5 -9 3 -4 -7 5 -8 4 -11 -1 -6 -9 9 -10 13 -13 42 0 8 -12 17 -25 21 -15 3
-23 12 -22 22 2 9 -11 29 -28 44 -17 15 -31 33 -31 40 -1 7 -6 12 -12 11 -5
-1 -23 11 -38 27 -16 17 -25 30 -21 30 5 0 -13 17 -40 39 -30 24 -90 54 -154
78 -102 39 -109 40 -240 41 l-135 2 -85 -43z"/>
</g>
</svg>
